<?xml version="1.0" encoding="UTF-8"?>
<svg id="XXL_Nutrition" xmlns="http://www.w3.org/2000/svg" version="1.1" viewBox="0 0 413.32 239.28">
  <!-- Generator: Adobe Illustrator 29.1.0, SVG Export Plug-In . SVG Version: 2.1.0 Build 142)  -->
  <defs>
    <style>
      .st0 {
        fill: #db2d27;
      }

      .st1 {
        fill: #db3127;
      }

      .st2 {
        fill: #fff;
      }
    </style>
  </defs>
  <g id="Nutrition">
    <path class="st2" d="M40.14,238.56h-12.26l-18.66-28.55v28.55H0v-38.6h12.42l18.33,28.94v-28.94h9.39v38.6h0Z"/>
    <path class="st2" d="M95.36,225.49c0,5.07-2.03,8.66-6.07,10.75-3.02,1.54-7.34,2.32-12.98,2.32s-9.89-.9-13.2-2.7c-4.23-2.28-6.35-5.86-6.35-10.75v-25.14h9.77v23.92c0,3.01,1.08,5.2,3.26,6.56,1.58.99,3.55,1.49,5.91,1.49,4.01,0,6.77-.79,8.28-2.37,1.29-1.36,1.93-3.36,1.93-6.01v-23.59h9.44v25.53h0Z"/>
    <path class="st2" d="M146.61,206.53h-14.41v32.14h-8.95v-32.14h-14.19v-6.57h37.55v6.57h0Z"/>
    <path class="st2" d="M201,238.56h-10.92l-10.03-15.07h-10.42v15.07h-9.17v-38.6h28.27c3.2,0,5.85,1.24,7.95,3.72,2.1,2.48,3.15,5.41,3.15,8.79,0,2.68-.9,4.96-2.71,6.83-1.8,1.87-4.09,3.05-6.85,3.52l10.71,15.74ZM188.68,212.08c0-1.8-.67-3.18-2.02-4.15-1.34-.97-3.16-1.46-5.44-1.46h-11.6v10.77h11.87c1.73,0,3.28-.38,4.64-1.15,1.69-.95,2.54-2.29,2.54-4.01Z"/>
    <path class="st2" d="M224.24,238.56h-10.33v-38.6h10.33v38.6Z"/>
    <path class="st2" d="M275.43,206.53h-14.41v32.14h-8.95v-32.14h-14.19v-6.57h37.55v6.57h0Z"/>
    <path class="st2" d="M299.62,238.56h-10.32v-38.6h10.32v38.6Z"/>
    <path class="st2" d="M357.71,219.21c0,7.52-2.08,12.9-6.24,16.15-3.39,2.62-8.32,3.93-14.8,3.93-7.18,0-12.48-1.51-15.91-4.54-3.75-3.32-5.63-8.64-5.63-15.98,0-6.01,1.67-10.69,5.02-14.05,3.64-3.65,9.09-5.47,16.35-5.47,7.99,0,13.62,1.75,16.9,5.25,2.87,3.1,4.31,8,4.31,14.71ZM347.88,218.98c0-3.8-.9-6.82-2.71-9.08-2.03-2.51-5.03-3.76-9-3.76s-6.85,1.35-8.84,4.04c-1.66,2.25-2.48,5.18-2.48,8.8,0,4.17.66,7.25,1.99,9.24,1.84,2.77,5.25,4.15,10.22,4.15,4.2,0,7.14-1.34,8.83-4.04,1.32-2.1,1.99-5.22,1.99-9.35Z"/>
    <path class="st2" d="M413.32,238.56h-12.26l-18.66-28.55v28.55h-9.22v-38.6h12.42l18.33,28.94v-28.94h9.39v38.6Z"/>
  </g>
  <g id="XXL">
    <path class="st0" d="M113.69,115.16c-.16-.09-.37-.15-.48-.28-.48-.62-.93-1.26-1.43-1.94.38-1.39.76-2.75,1.14-4.12q.38-1.37-.34-2.6c-6.71-11.33-13.42-22.65-20.14-33.98-4.08-6.89-8.16-13.78-12.24-20.67-.25-.42-.49-.85-.78-1.36,1.11-2.74,2.23-5.51,3.34-8.26.88-.09,1.41.63,2.26.63.25-.47.11-1.02.14-1.53.03-.49,0-.98,0-1.52,1.83-1.06,3.54-2.22,5.39-3.12.18-.09.37-.14.55-.21,1.38-.56,2.64-.6,3.75.65.51.58,1.21.99,1.89,1.52.26,1.56.28,3.17.27,4.77-.39.42-.76.8-1.14,1.21.25.87.42,1.72.85,2.58.8-.32,1.4-.83,2.05-1.23.63-.38,1.24-.78,1.83-1.16.57.24.74.73,1,1.13,6.26,9.46,12.52,18.93,18.78,28.4,2.93,4.43,5.85,8.85,8.78,13.28.27.41.56.8.85,1.22,1.12-.13,1.98-.91,3.08-1.12.63,1.45.77,2.98,1.36,4.42.85.11,1.63,0,2.5-.49-.66-.39-1.2-.71-1.82-1.07-.29-1.14-.6-2.32-.87-3.51-.05-.22,0-.5.08-.71.46-1.25,1.01-2.45,1.82-3.52.88-1.15,2.04-1.86,3.46-2.04,1.07-.13,2.16-.22,3.23-.17.97.04,1.68-.27,2.32-.98.69-.76,1.48-1.44,2.24-2.16,0-.7,0-1.33,0-1.97.02-1.73.28-3.42.87-5.06.92-2.55,2.56-4.38,5.22-5.2.37-.11.75-.25,1.09-.43,1.27-.66,2.03-1.67,2.1-3.14.02-.54,0-1.08.06-1.62.03-.28.08-.63.26-.81.7-.68,1.4-1.37,2.21-1.86.21.07.35.1.48.16q1.85.97,2.38,3.02c.31,1.18.61,2.37.92,3.56.69.22,1.31.16,2.01.07.06-.28.16-.55.18-.83.1-1.57.19-3.14.28-4.71.05-.86-.08-1.66-.65-2.35-.71-.84-.85-1.81-.77-2.89.17-2.43.14-2.44,1.72-4.33.69-.83,1.38-1.66,2.08-2.49.19-.22.4-.41.66-.66.92.67,1.82,1.26,2.64,1.95.7.58,1.36.72,2.16.09-.11-.5-.58-.72-.93-1.01-.46-.38-.66-.81-.63-1.4.03-.88.03-1.77,0-2.65-.02-.58.15-1.03.55-1.46,2.18-2.33,4.35-4.68,6.52-7.02.1-.1.23-.18.39-.3,1.5.32,2.64,1.42,4.08,2.08,1.18-.23,2.14-.9,2.82-1.89.38-.56.84-.94,1.4-1.25.56-.31,1.11-.63,1.74-.98.23.17.51.36.76.58.89.77,1.79,1.54,2.66,2.33.55.49,1.1.99,1.6,1.52,1.75,1.86,2.43,4.11,2.28,6.63-.08,1.38-.35,2.72-.9,4.01-.65,1.52-1.61,2.79-2.92,3.82-1.04.81-2.01,1.72-3.02,2.58-.71.61-1.07,1.38-1.15,2.3-.13,1.47-.25,2.94-.4,4.4-.18,1.71-.35,3.42-.59,5.12-.11.77-.37,1.52-.59,2.28-.1.33-.24.65-.39.95-1.06,2.09-2.42,2.62-4.6,1.77-.28-.11-.53-.26-.81-.35-1.23-.44-2.15-1.14-2.26-2.57-.01-.13-.14-.25-.27-.45-.24.2-.47.35-.66.54-2.1,2.28-4.21,4.54-6.27,6.85-1.25,1.4-2.3,2.94-3.15,4.62-.35.7-.75,1.42-.87,2.18-.25,1.55-1.36,2.56-2.01,3.88-.52-.13-.9-.2-1.26-.33-.48-.17-.88-.03-1.2.31-.27.28-.52.59-.74.91-.84,1.21-1.68,2.43-2.48,3.66-.23.36-.36.8-.48,1.22-.64,2.37-1.25,4.74-1.91,7.24.11.13.28.36.47.56.79.8,1.22,1.8,1.38,2.88.28,1.87.15,3.73-.55,5.51-.31.79-.77,1.48-1.42,2.03-.62.52-1.33.87-2.14.91-1.77.09-3.53.05-5.28-.31-.62-1.17-.9-2.42-1.31-3.87-.12.39-.22.58-.22.77-.01.47-.2.85-.46,1.22-.39.56-.76,1.14-1.11,1.67.12.39.41.29.62.34.18.04.37.08.65.13.06.55.12,1.07.18,1.6.06.54.13,1.07.18,1.61.14,1.52.28,3.03.39,4.55.08,1,.39,1.88.92,2.75,11.31,18.71,22.6,37.43,33.88,56.16.98,1.63,1.11,1.15.57,3.42-.2.86-.38,1.72-.57,2.59-.42.16-.78.31-1.14.44-1.66.6-3.01,1.64-4.2,2.91-.37.39-.52.79-.41,1.33.15.72.23,1.45.35,2.18.09.54.05,1.06-.21,1.57-.35.7-.62,1.44-.99,2.14-.12.22-.42.45-.66.49-.92.16-1.85.18-2.77-.11-1.04-.33-2.04-.77-2.9-1.42-1.29-.98-2.58-1.96-3.76-3.07-3.06-2.86-5.74-6.07-8.32-9.35-4.62-5.87-8.98-11.95-13.09-18.18-4.71-7.14-9.29-14.35-13.93-21.53-.27-.41-.53-.83-.81-1.23-.06-.09-.24-.09-.36-.13.01-.07.03-.15.04-.22-.05,0-.1.02-.16.03.05.05.1.11.15.16.09.48.16.96.26,1.44.1.44.13.87-.02,1.3-.42,1.2-.84,2.41-1.26,3.63-.49.15-.95.3-1.46.46-.88,1.68-1.79,3.36-3.31,4.73-.19-.25-.36-.42-.45-.63-.58-1.25-1.13-2.5-1.71-3.75-.21-.44-.44-.88-.7-1.29-.99-1.61-1.39-3.34-1.13-5.22.04-.29,0-.58,0-.88-2.6.52-4.75,3.54-3.76,6.11.62-.56.45-1.47,1.04-2.11h1.76c.46.72.95,1.44,1.38,2.21.16.28.23.65.24.98.03,1.13.01,2.26.01,3.46-.86.66-1.87,1.04-3,1.62-.15-.26-.31-.54-.47-.81-.18.12-.3.15-.32.21-.26.9-.5,1.8-.77,2.77-.36.18-.76.36-1.15.56-.72.37-1.33.16-1.89-.33-.58-.5-.91-1.15-1.14-1.86-.14-.46-.27-.93-.44-1.49-.63.37-.94.95-1.41,1.33-.49.4-.98.82-1.48,1.21-.5.4-1,.78-1.61,1.25.42.34.74.63,1.09.87,2.78,1.91,3.72,4.61,3.22,7.83-.28,1.79-.74,3.55-1.13,5.33-.03.13-.15.24-.27.41h-7.37c-.18-.41-.35-.81-.55-1.27-.77.72-1.07,1.7-1.76,2.43-.18.03-.37.09-.56.1-2.09.11-3.9.92-5.54,2.16-1.46,1.11-2.64,2.49-3.72,3.96-.31.42-.45.86-.35,1.37.04.24.06.49.11.73.08.41-.02.77-.27,1.11-.59.79-1.16,1.58-1.79,2.43-.44-.16-.84-.31-1.27-.47-.11.04-.29.05-.37.15-.42.47-.85.94-1.21,1.46-1.15,1.65-2.27,3.33-3.42,4.98-.26.37-.45.74-.51,1.2-.16,1.22-.33,2.43-.51,3.65-.1.67-.14,1.36-.44,2.09-1.81-.32-3.59-.63-5.39-.95-.86-1.45-1.1-3.17-2.12-4.53-.81-.29-1.55.28-2.33.12-.68-.84-3.04-5.04-3.76-6.7.24-.54.5-1.12.74-1.71.12-.31.33-.62.11-.98-.24-.4-.07-.75.14-1.1.5-.85.95-1.72,1.49-2.54.45-.68.52-1.3.19-2.06-.53-1.21-.95-2.48-1.42-3.72-.12-.32-.22-.65-.36-1.08,1.99-2.56,4.03-5.13,6.1-7.76.5.3.93.56,1.6.96-.85-1.82-.33-3.32.19-4.8.58-1.66,1.54-3.06,2.95-4.14,1.43-1.1,3.07-1.72,4.83-2.07.96-.19,1.94-.33,2.88-.61.74-.22,1.47-.57,2.13-.97.96-.59,1.39-1.5,1.23-2.64-.13-.92-.26-1.85-.41-2.77-.11-.61-.06-1.14.3-1.68.59-.91,1.1-1.86,1.66-2.79.12-.2.29-.38.49-.64.94.8,1.83,1.56,2.64,2.26.05.22.1.32.08.41-.29,1.08-.1,2.13.16,3.19.32,1.28.6,2.57.9,3.86.93.15,1.64-.16,2.26-.65.25-.19.42-.55.52-.86.15-.46.25-.95.3-1.44.11-1.22.16-2.45.27-3.67.11-1.21-.5-1.95-1.5-2.46-.34-.17-.71-.31-1.11-.48v-5.05c1.67-.63,2.63-1.99,3.52-3.42.62-1,1.2-2.03,1.85-3.01.57-.86,1.16-1.71,1.82-2.5.58-.68,1.19-1.29,1.06-2.3-.03-.25.16-.56.33-.79,1.68-2.3,3.38-4.59,5.08-6.88.06-.07.15-.12.28-.21.61.03,1.17.36,1.76.57.36.12.67.12,1-.04-.21,1.02.25,1.88.55,2.79h1.31c.11-.37.22-.72.3-1-.7-.48-1.31-.87-1.9-1.31-.13-.1-.17-.32-.25-.49ZM155.88,73.87c-1.47-.19-2.58-.08-3.87.37.09,1.34.35,2.65.95,3.95.28-.09.52-.14.73-.24.35-.17.7-.36,1.02-.58,1.34-.94,1.59-1.68,1.18-3.49ZM128.27,135.83c.41.23.7.53,1.12.3q-.45-.71-1.12-.3Z"/>
    <path class="st0" d="M292.48,119.79c.31-1.07.24-1.22-.51-1.43-.28-.08-.58-.12-.86-.21-1.37-.47-2.38-1.34-3-2.66-.47-.99-.77-2.03-.85-3.11-.11-1.47-.12-2.94-.19-4.41-.03-.58.17-1.05.55-1.47.26-.29.51-.6.74-.92.38-.54.8-.98,1.54-.93.11,0,.23-.16.41-.3-.63-1.68-1.12-3.44-2.83-4.51,0-1.44,0-2.86,0-4.28,0-.43.18-.78.46-1.05,1.06-1,1.33-2.19,1.08-3.6-.13-.71-.02-1.47-.02-2.27-.57-.64-1.16-1.29-1.72-1.93,0-.24-.03-.44,0-.63.41-2.32.83-4.63,1.25-6.94.92-.6,2.04-.49,3.01-1.07-.06-.34-.11-.66-.19-.98-.07-.28-.18-.55-.29-.86-.4-.06-.78-.11-1.13-.16-.1-.09-.19-.15-.25-.23q-1.52-2.26-1.52-5.04v-3.58c.54-.24,1.02-.44,1.55-.68-.06-.32-.09-.61-.17-.88-.71-2.44-.91-4.92-.66-7.44.26-2.69.47-5.38.78-8.07.26-2.22.01-4.41-.2-6.61-.04-.39-.08-.78-.12-1.22.3-.19.57-.38.86-.54.91-.49,1.81-.99,2.74-1.44.73-.36.99-.91.86-1.68-.04-.24-.1-.47-.16-.76-.56-.1-1.08-.18-1.72-.29-.46-.78-.98-1.61-1.44-2.47-.15-.29-.19-.66-.18-.99.09-2.46.24-4.91.31-7.36.03-.94.3-1.72.98-2.37.14-.13.23-.31.37-.51-.13-.82-.51-1.57-.83-2.33-.3-.7-.39-1.41-.36-2.16.1-2.02.57-3.98,1.02-5.95.21-.91.42-1.82.62-2.73.25-1.13.27-2.25-.25-3.32-.3-.62-.29-1.23-.14-1.87.23-.96.49-1.9,1.03-2.75,1.13-1.79,2.75-2.74,4.88-2.81,3.58-.12,6.78.89,9.64,3.28.25,4.87.26,9.82.36,14.78.1,4.96.22,9.92.33,14.87.71.62,1.52,1.03,2.35,1.27,1.33.38,2.3,1.26,3.46,2.01,0,1.18.02,2.35-.01,3.53,0,.27-.14.57-.31.8-.53.71-1.09,1.38-1.61,2.02-1.08.03-1.08.03-1.59.63-.28.34-.55.7-.81,1.05-.11.15-.2.33-.29.48.31.47.82.58,1.23.84.75.47,1.53.89,2.2,1.46,1.34,1.13,2.05,2.62,2.12,4.38.06,1.38.05,2.75-.32,4.1-.05.19-.09.38-.15.57-.54,1.72-1.7,2.71-3.49,2.94-.68.09-1.37.15-2.02.22-.56,1-.57,1.01.08,1.64.52.52,1.07,1.02,1.68,1.6-.04.73-.07,1.5-.12,2.28-.05.78-.11,1.57-.17,2.43-1.5,1.21-1.89,2.97-2.06,4.81-.1,1.12-.14,2.26-.17,3.38-.02.73-.1,1.47.5,2.07.15.15.16.46.2.7.12.88.22,1.76.35,2.63.07.51-.03.97-.29,1.41-.15.25-.25.54-.42.77-1.31,1.77-.99,3.79-.97,5.97.29-.24.43-.34.55-.46.3-.33.58-.67.87-1,.91-1.03,2-1.57,3.52-1.2.07.26.2.57.25.89q.44,2.87-.5,5.74c-.17.5-.24,1.05-.61,1.48-.89-.05-1.61-.9-2.59-.41-.43-.49-.84-.97-1.23-1.41-.49.15-.39.49-.4.75-.08,2.75-.14,5.5-.2,8.25-.09,3.93-.19,7.86-.28,11.79-.01.49,0,.98,0,1.44.35.29.56-.11.82-.07.24.03.47.13.72.16.54.05,1.08.1,1.62.08,1.25-.06,2.02.59,2.55,1.64.46.9.56,1.88.63,2.86.03.48,0,.97,0,1.48-.72.45-1.48.77-2.01,1.31-.53.54-.82,1.32-1.26,1.97-.24.36-.56.66-.88,1.04,1.43.58,2.79,1.13,4.2,1.69.21,1.7-.32,3.4-.14,5.1.78.56,1.55,1.09,2.29,1.66.26.2.54.47.62.76.2.71.7,1.05,1.32,1.26.42.13.85.24,1.29.26.73.04,1.47.01,2.23.01.75-.97.97-2.17,1.65-3.22.77-.18,1.6-.08,2.49-.06.97,1.07,1.95,2.16,2.92,3.23h1.55c.46-1.33.91-2.61,1.4-4,.4.26.73.44,1.04.67,1.23.9,2.44,1.83,3.68,2.71.39.28.85.52,1.31.62,1.46.3,2.3-.1,3.1-1.39.28-.46.53-.94.78-1.4,1.28-.26,2.38.09,3.4.74.5.31.97.68,1.45,1,.45.3.9.58,1.37.89,1.18-.63,1.94-1.71,3.08-2.43.19.22.4.41.54.65.33.6.83.97,1.48,1.12,1.15.26,2.3.47,3.46.7.24.05.49.07.73.09,3.88.32,5.96,2.72,6.61,6.22.24,1.32.24,2.64.22,3.97-.03,2.26.27,1.53-1.22,3.26-.8.93-1.63,1.83-2.5,2.81-.52.01-1.05.03-1.59.03-3.98,0-7.96-.06-11.94.02-3.14.06-6.28.27-9.42.44-1.42.08-2.84.21-4.26.34-.23.02-.46.09-.75.15.12.34.21.62.32.89.72,1.82.81,3.73.74,5.66,0,.23-.08.49-.21.69-.93,1.44-2.17,2.41-3.96,2.44-.83.01-1.67-.06-2.5-.08-.56-.01-.91-.28-1.12-.8-.13-.32-.29-.62-.47-.92-.51-.82-.71-1.67-.65-2.66.09-1.42.02-2.84,0-4.27,0-.09-.08-.17-.11-.26-.04-.02-.08-.06-.12-.06-1.12.08-2.25.16-3.37.26-4.64.39-9.29.78-14.02,1.18.03.35.05.68.11,1,.27,1.55.35,3.12.35,4.7,0,.49-.17.83-.54,1.14-1.04.88-2.23,1.44-3.58,1.62-1.86.26-3.72.19-5.59.12-.09,0-.17-.08-.33-.16-.47-1.3-.59-2.71-.62-4.13-.03-1.41.19-2.82.18-4.28-1.7,0-3.14.92-4.83.68-.19-.28-.43-.58-.63-.91-.58-.97-1.14-1.95-1.73-2.92-.22-.36-.27-.72-.16-1.12.34-1.23.68-2.46,1.02-3.7.38-.13.74-.25,1.06-.35.07-.69-.31-1.1-.6-1.55-.9-1.4-1.79-2.82-2.73-4.2-.57-.82-.78-1.6-.44-2.6.42-1.27.44-2.61.3-3.94-.23-2.25-.43-4.5-.63-6.75-.13-1.42-.12-2.85.16-4.26.17-.83.42-1.62.86-2.34.92-1.49,2.16-2.02,3.87-1.65.24.05.48.08.81.13ZM299.37,9.76c.68-.4,1.27-.47,1.81-1-.68-.12-1.19-.13-1.75.04-.02.24-.03.47-.07.96ZM306.74,125.11c.03.38.06.68.1,1.1.42-.27.71-.46,1.05-.68-.4-.15-.71-.26-1.15-.42Z"/>
    <path class="st1" d="M115.78,162.71c-1.06-.43-1.88-1.12-2.85-1.78,0-.83-.05-1.71-.01-2.58.01-.32.17-.66.32-.95.23-.43.51-.84.77-1.25q.62-.97,1.91-.71c.05.08.14.16.15.25.08,1.38.49,2.69.89,4,.19.63.11,1.14-.26,1.65-.32.43-.59.89-.91,1.37Z"/>
    <path d="M130.63,138.37c-.05-.05-.1-.11-.15-.16.05,0,.11-.02.16-.03-.01.07-.02.15-.04.22,0,0,.03-.02.03-.02Z"/>
    <path class="st1" d="M207.58,132.85h1.36c.39,1.59.77,3.09,1.11,4.61.07.31.04.7-.1.98-.31.6-.66,1.19-1.14,1.73-.58-.12-.97-.51-1.42-.79-.46-.28-.89-.6-1.34-.9-.23-.89-.1-1.77-.1-2.65,0-.28.12-.58.27-.82.42-.72.88-1.41,1.36-2.17Z"/>
    <path class="st0" d="M261.58,23.19c1.18.86,2.32,1.69,3.51,2.56.43-.14.84-.28,1.28-.42-.07-.19-.08-.35-.17-.44-.42-.41-.86-.8-1.35-1.25,0-1.3,0-2.62,0-3.95,0-.5.33-.8.62-1.12,1.87-2.02,3.74-4.04,5.61-6.06.37-.39.74-.79,1.16-1.24.47.2.92.37,1.35.59.56.3,1.15.58,1.64.98.94.75,1.82.61,2.67-.08.49-.4,1-.82,1.35-1.33.32-.47.71-.79,1.19-1.05.6-.33,1.19-.68,1.88-1.06.23.18.5.38.75.59.82.71,1.63,1.42,2.44,2.13.44.39.88.78,1.31,1.19,2.06,1.95,2.97,4.35,2.8,7.16-.08,1.43-.39,2.82-.98,4.14-.65,1.46-1.6,2.68-2.87,3.68-1.08.85-2.09,1.78-3.12,2.69-.61.54-.95,1.2-1.01,2.05-.13,1.96-.37,3.91-.53,5.87-.16,1.86-.37,3.72-.9,5.52-.25.85-.58,1.67-1.13,2.38-.93,1.21-1.88,1.55-3.35,1.12-1.18-.35-2.29-.87-3.3-1.56-.21-.67-.42-1.31-.66-2.1-.33.27-.57.42-.75.62-2.13,2.31-4.27,4.62-6.36,6.97-1.21,1.36-2.22,2.88-3.05,4.5-.43.83-.85,1.67-.96,2.61-.02.19-.06.4-.16.56-.55.98-1.17,1.91-1.79,2.87-.44-.12-.77-.18-1.08-.29-.66-.24-1.16-.02-1.56.49-.27.35-.53.71-.78,1.07-.72,1.05-1.46,2.1-2.14,3.18-.28.45-.47.97-.61,1.48-.51,1.85-.97,3.7-1.46,5.55-.12.47-.26.94-.39,1.43.02.08.02.2.08.26,1.25,1.12,1.78,2.57,1.89,4.19.1,1.58-.08,3.14-.69,4.62-.81,1.99-2.28,3.04-4.45,2.98-1.42-.04-2.84-.17-4.27-.26-.81-1.32-.99-2.8-1.56-4.17.18,1.26-.47,2.18-1.15,3.1-.2.26-.34.57-.56.96.29.06.47.1.65.12.19.03.38.04.68.07.08.58.19,1.15.24,1.73.21,2.1.44,4.2.57,6.31.06.93.38,1.69.84,2.46,3.36,5.55,6.71,11.1,10.06,16.65,8.02,13.3,16.03,26.59,24.05,39.89q.78,1.3.48,2.74c-.21.96-.43,1.91-.65,2.92-.31.13-.61.28-.92.39-1.56.55-2.86,1.48-4.06,2.6-.75.69-.94,1.42-.7,2.37.15.57.17,1.17.29,1.74.09.41.04.78-.13,1.14-.41.89-.81,1.79-1.2,2.66-1.36.55-2.64.38-3.92-.1-1.21-.46-2.28-1.14-3.31-1.91-1.78-1.33-3.35-2.88-4.87-4.49-3.41-3.61-6.49-7.5-9.46-11.49-6.22-8.36-12.03-17-17.62-25.8-2.11-3.32-4.22-6.64-6.33-9.95-.26-.4-.54-.8-.9-1.31-.22.59,0,.98.13,1.35.24.69.17,1.33-.08,2-.4,1.06-.75,2.13-1.13,3.23-.24.07-.46.18-.7.2-.55.05-.83.38-1.1.84-.62,1.06-1.29,2.08-1.98,3.1-.27.39-.59.77-1.1.99-.74-1.25-1.28-2.57-1.88-3.85-.23-.49-.4-1.01-.69-1.46-1.12-1.72-1.56-3.58-1.33-5.61.03-.24,0-.48,0-.81-.9.11-1.54.65-2.18,1.15-.71.56-1.25,1.26-1.53,2.12-.31.94-.29,1.89-.13,3.12.63-.85.61-1.7,1.09-2.38.53-.18,1.11-.12,1.77-.04.48.76.99,1.53,1.47,2.33.12.2.18.47.18.7.01,1.22.09,2.45-.06,3.76-.91.53-1.83,1.04-2.84,1.44-.23-.29-.42-.51-.62-.75-.1.1-.24.19-.28.3-.19.66-.33,1.33-.53,1.99-.39,1.34-2.14,1.87-3.21.99-.51-.42-.85-.96-1.06-1.57-.19-.56-.33-1.13-.52-1.79-.89.47-1.39,1.35-2.15,1.93-.77.59-1.65,1.07-2.33,1.9.46.35.87.69,1.3.99,2.14,1.52,3.09,3.63,3.04,6.21-.01.83-.11,1.67-.27,2.48-.29,1.49-.66,2.97-1.02,4.51-.22.06-.45.16-.68.16-2.16.01-4.32,0-6.49,0-.14,0-.28-.06-.52-.11-.11-.31-.23-.66-.35-1-.16.02-.29,0-.33.06-.47.68-.93,1.38-1.44,2.13-.38.07-.81.18-1.24.22-1.65.19-3.13.83-4.48,1.76-1.68,1.16-3,2.67-4.19,4.31-.28.38-.39.78-.33,1.24.05.34.09.69.07,1.03-.02.28-.06.61-.21.83-.58.85-1.17,1.68-1.77,2.42-.21.01-.32.05-.4.02-1.22-.45-1.36-.43-2.08.57-.43.6-.79,1.25-1.2,1.85-.83,1.22-1.66,2.44-2.53,3.63-.39.53-.63,1.07-.7,1.74-.15,1.42-.37,2.82-.58,4.23-.05.33-.15.65-.25,1.06-1.9-.14-3.69-.59-5.5-.89-.77-1.51-1.12-3.13-2.03-4.49-.81-.23-1.57.15-2.41.13-.13-.18-.3-.35-.41-.56-.98-1.76-1.93-3.54-2.94-5.28-.33-.57-.38-1.08-.06-1.66.21-.39.37-.8.53-1.21.06-.17.13-.43.05-.56-.37-.58-.04-1.02.23-1.48.64-1.1,1.28-2.21,1.92-3.32-.72-1.93-1.42-3.81-2.11-5.64.52-1,4.54-6.2,6.11-7.91.22.13.47.27.69.42.2.13.38.29.65.5.01-.26.07-.41.02-.52-.38-.8-.41-1.59-.14-2.43.18-.56.26-1.15.45-1.71.95-2.7,2.74-4.64,5.43-5.65,1.09-.41,2.27-.6,3.41-.9.95-.25,1.92-.43,2.83-.76.58-.21,1.12-.61,1.61-1,.57-.45.87-1.07.79-1.81-.13-1.17-.26-2.34-.43-3.51-.06-.42-.03-.77.18-1.13.7-1.18,1.39-2.37,2.13-3.63.26.14.48.21.65.35.72.59,1.42,1.21,2.12,1.8.03.17.1.33.08.46-.24,1.24,0,2.44.3,3.64.28,1.13.53,2.28.8,3.45.87.09,1.53-.22,2.15-.61.35-.22.55-.57.61-.97.17-1.02.36-2.03.47-3.05.08-.78.02-1.57.08-2.35.06-.84-.32-1.43-.98-1.85-.49-.3-1.03-.52-1.62-.81-.13-1.62-.03-3.29-.06-5,1.8-.67,2.8-2.13,3.72-3.65.46-.75.9-1.52,1.38-2.27.81-1.29,1.64-2.57,2.73-3.65.3-.3.48-.63.43-1.04-.08-.75.28-1.31.7-1.87,1.47-1.97,2.92-3.95,4.38-5.93.2-.27.43-.52.62-.74.9.05,1.58.66,2.55.66-.43-.62-.77-1.15-1.17-1.65-.37-.47-.45-.95-.27-1.51.27-.89.53-1.79.76-2.69.6-2.36.74-1.63-.47-3.69-5.55-9.39-11.11-18.77-16.67-28.15-5.13-8.67-10.27-17.33-15.4-25.99-.96-1.63-.86-1.16-.2-2.82.74-1.87,1.5-3.74,2.25-5.6.16-.4.36-.8.57-1.25.78,0,1.33.64,2.04.68.37-.28.23-.65.25-.96.03-.34,0-.69.02-1.03.01-.34.04-.68.06-1.12,1.72-1,3.44-2.04,5.22-2.98.68-.36,1.48-.48,2.25-.66.49-.11.95.02,1.37.37.79.66,1.61,1.29,2.43,1.92.3.23.41.53.42.89.03,1.08.04,2.16.11,3.24.04.64-.08,1.16-.63,1.55-.16.11-.27.28-.44.46.07.93.37,1.79.8,2.69,1.4-.69,2.56-1.7,3.92-2.39.53.29.74.81,1.03,1.25,4.42,6.68,8.84,13.36,13.25,20.04,4.74,7.17,9.48,14.35,14.23,21.52.27.4.56.8.87,1.25,1.09-.21,1.97-.92,3.11-1.17.43,1.48.84,2.93,1.28,4.42.9.09,1.69.04,2.55-.46-.67-.4-1.25-.75-1.85-1.11-.25-1.05-.49-2.1-.78-3.14-.15-.51-.08-.97.13-1.43.35-.76.69-1.52,1.09-2.25,1.08-1.99,2.81-2.96,5.03-3.09.93-.05,1.87-.05,2.8-.03.52,0,.94-.14,1.31-.52.85-.89,1.72-1.75,2.68-2.72,0-.53-.01-1.16,0-1.8.04-1.68.27-3.33.82-4.92.92-2.67,2.58-4.6,5.37-5.41.28-.08.56-.2.82-.32,1.41-.66,2.22-1.75,2.32-3.32.05-.68,0-1.37,0-2.12.82-.72,1.62-1.42,2.36-2.08.21.03.32,0,.4.05.67.4,1.34.81,2.01,1.22.21.7.43,1.4.62,2.11.22.81.4,1.62.62,2.43.09.33.23.63.35.95.68.13,1.3.18,1.96-.05.05-.24.14-.48.15-.72.1-1.67.17-3.33.26-5,.04-.77-.16-1.46-.64-2.06-.65-.81-.87-1.71-.74-2.75.11-.83-.09-1.74.2-2.48.31-.79,1.02-1.42,1.58-2.1.65-.8,1.32-1.59,1.99-2.38.18-.22.41-.4.68-.66ZM245.99,55.67c.96-.21,1.61-.65,2.22-1.15.83-.69,1.1-1.59.96-2.63-.05-.41-.28-.67-.66-.65-1.11.08-2.24,0-3.36.36-.09,1.44.34,2.71.84,4.07ZM208.88,94.37c-.41-.23-.74-.43-1.08-.61-.31-.16-.54-.52-1.03-.46.04.82.26,1.49.57,2.12q1.28.12,1.55-1.05ZM222.37,113.79c-.2-.88-.24-.9-.95-.56.04.08.07.2.14.24.25.12.51.21.81.32Z"/>
  </g>
</svg>